<svg xmlns="http://www.w3.org/2000/svg" viewBox="0 0 114 129"><g fill="none" fill-rule="evenodd" stroke="#0070BA" stroke-linecap="round" stroke-linejoin="round" stroke-width="2"><path d="M51.73 61.15a100.48 100.48 0 0 0 2.278 5.339l3.897.01 1.194-.003 3.897.01c19.286-42.093-3.994-64.734-3.994-64.734s-.283-.184-.632-.161c-.329.022-.564.158-.564.158s-19.258 18.727-8.021 53.918m3.169-41.05h13.91-13.91zm12.658 46.68s7.337-.045 11.786 8.98c0 0 2.969-13.795-4.906-21.85M51.557 61.15s-8.118.077-12.534 9.086c0 0-3.691-16.907 7.737-24.186"/><path d="M62.562 30.248a5.965 5.965 0 0 0 0-8.427 5.945 5.945 0 0 0-8.416 0 5.965 5.965 0 0 0 0 8.427 5.945 5.945 0 0 0 8.416 0zm-27.605 71.208c0-1.42-1.036-5.326-3.84-7.637l.286.272c-1.158-1.154-3.916-3.234-8.762-3.234-8.02 0-13.804 6.378-13.804 14.014 0 1.628.282 3.187.798 4.639a9.21 9.21 0 0 0-8.026 9.136c0 5.087 4.314 9.669 8.275 9.212"/><path d="M52.954 108.724c0-5.78-4.715-10.462-10.486-10.462-5.77 0-10.446 4.683-10.446 10.462"/><path d="M52.954 108.854c0-5.821-4.726-10.54-10.538-10.54-2.521 0-4.833.889-6.646 2.365m47.791 7.623c-.828-5.72-6.067-8.856-11.838-8.856-6.203 0-7.09-6.558-7.09-6.558V71.323"/><path d="M104.79 127.86c3.685.426 7.7-3.837 7.7-8.571a8.569 8.569 0 0 0-7.47-8.502c.48-1.352.743-2.804.743-4.319 0-7.103-5.382-13.039-12.844-13.039-4.292 0-6.406 1.517-7.886 2.758-2.978 2.494-3.576 5.784-3.576 7.107M52.306 70.879v21.788s.48 6.67-5.39 6.67M58.523 77.327V92"/></g></svg>